<svg xmlns="http://www.w3.org/2000/svg" viewBox="0 0 483.92 526.49"><defs><style>.cls-1{fill:#fff;}</style></defs><g id="Calque_2" data-name="Calque 2"><g id="Calque_1-2" data-name="Calque 1"><path class="cls-1" d="M302.24.62a2.79,2.79,0,0,0-4.1,3.67,130.57,130.57,0,0,1,19,68.37c0,68.62-51.6,124.26-115.24,124.26a107.6,107.6,0,0,1-48.39-11.52,6,6,0,0,1-1.64-9.57L184.48,142a6,6,0,0,0-3.6-10.12L6.71,111.14a6,6,0,0,0-6.66,6.73L23.14,293.43a6,6,0,0,0,10.2,3.43l25.85-26.13a6,6,0,0,1,8.5,0c41.9,40.92,103.73,61.52,169.61,45.67,62.47-15,112.28-63.53,128.49-125.7C385.81,114,356.21,42.27,302.24.62"/><path class="cls-1" d="M266.3,525.81a2.92,2.92,0,0,0,4.43-3.63,92.64,92.64,0,0,1-11-44.13c0-48.52,36.48-87.86,81.48-87.86a76,76,0,0,1,33.86,8,4.53,4.53,0,0,1,1.26,7.2l-22.41,23.26a4.5,4.5,0,0,0,2.71,7.6L478.88,450.8a4.51,4.51,0,0,0,5-5.06L467.67,322.49a4.5,4.5,0,0,0-7.67-2.58l-17.71,17.91a4.52,4.52,0,0,1-6.37,0,126.32,126.32,0,0,0-97.35-35.59c-62.68,4.35-113.47,55.48-117.43,118.19A126.45,126.45,0,0,0,266.3,525.81"/><path class="cls-1" d="M184.68,467.78a4.22,4.22,0,0,1-7.14-4.13,60,60,0,0,0,2.74-18c0-31-23.28-56.06-52-56.06a48.55,48.55,0,0,0-19.81,4.23,4.25,4.25,0,0,0-1.27,6.82l11.08,11.5a4.23,4.23,0,0,1-2.54,7.14l-73.59,8.77a4.23,4.23,0,0,1-4.69-4.75l9.76-74.17a4.22,4.22,0,0,1,7.19-2.42l8.43,8.52a4.25,4.25,0,0,0,6,0,80.58,80.58,0,0,1,62.89-21.64c38.34,3.46,69.44,34.46,73,72.79a80.59,80.59,0,0,1-20,61.35"/></g></g></svg>