<svg xmlns="http://www.w3.org/2000/svg" viewBox="0 0 1490.96 424.69"><defs><style>.cls-1{fill:#0071ce;}.cls-2{fill:#e81f76;}.cls-3{fill:#93d500;}</style></defs><g id="Calque_2" data-name="Calque 2"><g id="Calque_1-2" data-name="Calque 1"><rect class="cls-1" x="444.59" y="142.11" width="34.88" height="139.13"/><polygon class="cls-1" points="524.82 281.25 484.43 281.25 549.22 209.97 487.47 142.11 529.21 142.11 572.29 191.47 615.94 142.11 656.73 142.11 595.15 210.34 659.96 281.25 618.22 281.25 571.71 228.27 524.82 281.25"/><path class="cls-1" d="M823.09,192.43c0,31.65-24,50.12-65.58,50.12h-57v38.7H665.63V142.11h91.88c41.35,0,65.58,18.48,65.58,50.32m-35.65,0c0-15.26-9.92-22.49-31.07-22.49H700.52v45h55.85c21.15,0,31.07-7.24,31.07-22.48"/><polygon class="cls-1" points="870.68 196.81 965.42 196.81 965.42 224.07 870.68 224.07 870.68 253.43 977.23 253.43 977.23 281.25 835.79 281.25 835.79 142.11 977.23 142.11 977.23 169.94 870.68 169.94 870.68 196.81"/><path class="cls-1" d="M1118.8,241l40,40.22h-44.22l-34.5-35.84h-53.19v35.84H992V142.11h95.12c40.61,0,64.42,18.87,64.42,51.08,0,22.88-12,40.22-32.78,47.84m-33.16-22.88c20.77,0,31.06-7.81,31.06-24.2,0-16.19-9.9-24-31.06-24h-58.72v48.21Z"/><polygon class="cls-1" points="1308.22 169.94 1248.18 169.94 1248.18 281.25 1213.3 281.25 1213.3 169.94 1153.45 169.94 1153.45 142.11 1308.22 142.11 1308.22 169.94"/><path class="cls-1" d="M1401,250.56h-77.77l-17.35,30.69h-38.5L1345.73,149a19.07,19.07,0,0,1,32.8,0l78.33,132.27h-38.5Zm-15.64-27.44-23.24-41-23.26,41Z"/><path class="cls-2" d="M243.8.5a2.25,2.25,0,0,0-3.31,3A105.32,105.32,0,0,1,255.84,58.6c0,55.36-41.62,100.23-93,100.23a86.79,86.79,0,0,1-39-9.28,4.86,4.86,0,0,1-1.33-7.72l26.28-27.27a4.84,4.84,0,0,0-2.91-8.16L5.41,89.65A4.83,4.83,0,0,0,0,95.08L18.66,236.69a4.84,4.84,0,0,0,8.23,2.77l20.86-21.09a4.86,4.86,0,0,1,6.85,0c33.8,33,83.67,49.64,136.82,36.85A141.55,141.55,0,0,0,295.06,153.83C311.21,91.93,287.33,34.09,243.8.5"/><path class="cls-3" d="M214.81,424.13a2.35,2.35,0,0,0,3.57-2.92,74.78,74.78,0,0,1-8.9-35.6c0-39.14,29.43-70.87,65.73-70.87a61.29,61.29,0,0,1,27.31,6.43,3.66,3.66,0,0,1,1,5.81l-18.08,18.75a3.63,3.63,0,0,0,2.18,6.13l98.64,11.77a3.63,3.63,0,0,0,4-4.08l-13.07-99.42a3.63,3.63,0,0,0-6.19-2.08L356.76,272.5a3.64,3.64,0,0,1-5.14,0,101.85,101.85,0,0,0-78.52-28.7c-50.56,3.5-91.53,44.75-94.72,95.34a102,102,0,0,0,36.43,85"/><path class="cls-1" d="M149,377.33a3.41,3.41,0,0,1-5.76-3.34,48.27,48.27,0,0,0,2.21-14.49c0-25-18.78-45.22-41.94-45.22a39.18,39.18,0,0,0-16,3.41,3.43,3.43,0,0,0-1,5.5l9,9.28a3.42,3.42,0,0,1-2.06,5.76L34,345.3a3.4,3.4,0,0,1-3.78-3.83l7.87-59.83a3.4,3.4,0,0,1,5.8-1.95l6.8,6.87a3.43,3.43,0,0,0,4.81,0A65.2,65.2,0,0,1,149,377.33"/><path class="cls-1" d="M1491,143.23a24.58,24.58,0,0,1-25,24.77c-14,0-25.21-10.89-25.21-24.77,0-13.58,11.2-24.47,25.21-24.47,14.17,0,25,10.89,25,24.47m-44,0c0,10.89,8,19.54,19.09,19.54,10.75,0,18.64-8.65,18.64-19.38,0-10.89-7.89-19.7-18.79-19.7S1447,132.5,1447,143.23M1462,156.07h-5.66V131.6a50,50,0,0,1,9.39-.75c4.63,0,6.71.75,8.5,1.79a6.8,6.8,0,0,1,2.39,5.38c0,2.68-2.09,4.76-5.08,5.65v.3c2.41.9,3.73,2.69,4.49,6,.75,3.73,1.19,5.21,1.79,6.12h-6.12c-.74-.91-1.2-3.14-1.94-6-.45-2.69-1.93-3.87-5.08-3.87H1462Zm.16-13.88h2.69c3.12,0,5.65-1.05,5.65-3.58,0-2.24-1.63-3.72-5.21-3.72a13.81,13.81,0,0,0-3.13.28Z"/></g></g></svg>